<svg width="16" height="26" viewBox="0 0 16 26" fill="none" xmlns="http://www.w3.org/2000/svg">
    <path d="M5.75 7C6.16484 7 6.5 7.33516 6.5 7.75V8.5H9.5V7.75C9.5 7.33516 9.83516 7 10.25 7C10.6648 7 11 7.33516 11 7.75V8.5H12.125C12.7461 8.5 13.25 9.00391 13.25 9.625V10.75H2.75V9.625C2.75 9.00391 3.25391 8.5 3.875 8.5H5V7.75C5 7.33516 5.33516 7 5.75 7ZM2.75 11.5H13.25V17.875C13.25 18.4961 12.7461 19 12.125 19H3.875C3.25391 19 2.75 18.4961 2.75 17.875V11.5ZM4.25 13.375V14.125C4.25 14.3313 4.41875 14.5 4.625 14.5H5.375C5.58125 14.5 5.75 14.3313 5.75 14.125V13.375C5.75 13.1687 5.58125 13 5.375 13H4.625C4.41875 13 4.25 13.1687 4.25 13.375ZM7.25 13.375V14.125C7.25 14.3313 7.41875 14.5 7.625 14.5H8.375C8.58125 14.5 8.75 14.3313 8.75 14.125V13.375C8.75 13.1687 8.58125 13 8.375 13H7.625C7.41875 13 7.25 13.1687 7.25 13.375ZM10.625 13C10.4187 13 10.25 13.1687 10.25 13.375V14.125C10.25 14.3313 10.4187 14.5 10.625 14.5H11.375C11.5813 14.5 11.75 14.3313 11.75 14.125V13.375C11.75 13.1687 11.5813 13 11.375 13H10.625ZM4.25 16.375V17.125C4.25 17.3313 4.41875 17.5 4.625 17.5H5.375C5.58125 17.5 5.75 17.3313 5.75 17.125V16.375C5.75 16.1687 5.58125 16 5.375 16H4.625C4.41875 16 4.25 16.1687 4.25 16.375ZM7.625 16C7.41875 16 7.25 16.1687 7.25 16.375V17.125C7.25 17.3313 7.41875 17.5 7.625 17.5H8.375C8.58125 17.5 8.75 17.3313 8.75 17.125V16.375C8.75 16.1687 8.58125 16 8.375 16H7.625ZM10.25 16.375V17.125C10.25 17.3313 10.4187 17.5 10.625 17.5H11.375C11.5813 17.5 11.75 17.3313 11.75 17.125V16.375C11.75 16.1687 11.5813 16 11.375 16H10.625C10.4187 16 10.25 16.1687 10.25 16.375Z" fill="#6C757D"/>
</svg>