<svg width="16" height="26" viewBox="0 0 16 26" fill="none" xmlns="http://www.w3.org/2000/svg">
    <path d="M12.704 9.70779C13.0945 9.31735 13.0945 8.68327 12.704 8.29283C12.3136 7.90239 11.6795 7.90239 11.2891 8.29283L8 11.585L4.70779 8.29595C4.31735 7.90551 3.68327 7.90551 3.29283 8.29595C2.90239 8.6864 2.90239 9.32047 3.29283 9.71092L6.58504 13L3.29595 16.2922C2.90551 16.6826 2.90551 17.3167 3.29595 17.7072C3.6864 18.0976 4.32047 18.0976 4.71092 17.7072L8 14.415L11.2922 17.704C11.6826 18.0945 12.3167 18.0945 12.7072 17.704C13.0976 17.3136 13.0976 16.6795 12.7072 16.2891L9.41496 13L12.704 9.70779Z"
          fill="#8A939A"/>
</svg>
