<?xml version="1.0" encoding="UTF-8" standalone="no"?>
<svg width="20" height="18" viewBox="0 0 20 18" fill="none" xmlns="http://www.w3.org/2000/svg">
    <g clip-path="url(#clip0_5052_6566)">
        <path d="M9.99913 1.22266C7.19358 1.22266 4.94705 2.50043 3.31163 4.02127C1.68663 5.52821 0.599826 7.33377 0.0859375 8.57335C-0.0286458 8.84766 -0.0286458 9.15321 0.0859375 9.42752C0.599826 10.6671 1.68663 12.4727 3.31163 13.9796C4.94705 15.5004 7.19358 16.7782 9.99913 16.7782C12.8047 16.7782 15.0512 15.5004 16.6866 13.9796C18.3116 12.4692 19.3984 10.6671 19.9158 9.42752C20.0304 9.15321 20.0304 8.84766 19.9158 8.57335C19.3984 7.33377 18.3116 5.52821 16.6866 4.02127C15.0512 2.50043 12.8047 1.22266 9.99913 1.22266ZM14.9991 9.00043C14.9991 11.7608 12.7595 14.0004 9.99913 14.0004C7.23872 14.0004 4.99913 11.7608 4.99913 9.00043C4.99913 6.24002 7.23872 4.00043 9.99913 4.00043C12.7595 4.00043 14.9991 6.24002 14.9991 9.00043ZM9.99913 6.77821C9.99913 8.00391 9.0026 9.00043 7.77691 9.00043C7.3776 9.00043 7.0026 8.89627 6.67969 8.70877C6.67274 8.80599 6.6658 8.89974 6.6658 9.00043C6.6658 10.8407 8.15885 12.3338 9.99913 12.3338C11.8394 12.3338 13.3325 10.8407 13.3325 9.00043C13.3325 7.16016 11.8394 5.6671 9.99913 5.6671C9.90191 5.6671 9.80469 5.67057 9.70747 5.68099C9.89149 6.00391 9.99913 6.37891 9.99913 6.77821Z" fill="#B4BDC5"/>
    </g>
    <defs>
        <clipPath id="clip0_5052_6566">
            <rect width="20" height="17.7778" fill="white" transform="translate(0 0.113281)"/>
        </clipPath>
    </defs>
</svg>
