<svg width="14" height="14" viewBox="0 0 14 14" fill="none" xmlns="http://www.w3.org/2000/svg">
    <path d="M1 0C0.446875 0 0 0.446875 0 1V4C0 4.55312 0.446875 5 1 5C1.55313 5 2 4.55312 2 4V2H4C4.55312 2 5 1.55313 5 1C5 0.446875 4.55312 0 4 0H1ZM2 10C2 9.44687 1.55313 9 1 9C0.446875 9 0 9.44687 0 10V13C0 13.5531 0.446875 14 1 14H4C4.55312 14 5 13.5531 5 13C5 12.4469 4.55312 12 4 12H2V10ZM10 0C9.44687 0 9 0.446875 9 1C9 1.55313 9.44687 2 10 2H12V4C12 4.55312 12.4469 5 13 5C13.5531 5 14 4.55312 14 4V1C14 0.446875 13.5531 0 13 0H10ZM14 10C14 9.44687 13.5531 9 13 9C12.4469 9 12 9.44687 12 10V12H10C9.44687 12 9 12.4469 9 13C9 13.5531 9.44687 14 10 14H13C13.5531 14 14 13.5531 14 13V10Z" fill="white"/>
</svg>