<svg width="10" height="6" viewBox="0 0 10 6" fill="none" xmlns="http://www.w3.org/2000/svg">
    <g clip-path="url(#clip0_4563_2115)">
        <path d="M4.29549 0.292969C4.68611 -0.0976562 5.32049 -0.0976562 5.71111 0.292969L9.71111 4.29297C9.99862 4.58047 10.083 5.00859 9.92674 5.38359C9.77049 5.75859 9.40799 6.00234 9.00174 6.00234H1.00174C0.598615 6.00234 0.23299 5.75859 0.0767397 5.38359C-0.0795103 5.00859 0.00798967 4.58047 0.292365 4.29297L4.29236 0.292969H4.29549ZM4.29549 13.7086L0.29549 9.70859C0.00798967 9.42109 -0.0763853 8.99297 0.0798647 8.61797C0.236115 8.24297 0.598615 7.99922 1.00486 7.99922H9.00174C9.40486 7.99922 9.77049 8.24297 9.92674 8.61797C10.083 8.99297 9.99549 9.42109 9.71111 9.70859L5.71111 13.7086C5.32049 14.0992 4.68611 14.0992 4.29549 13.7086Z"
              fill="#009383"/>
    </g>
    <defs>
        <clipPath id="clip0_4563_2115">
            <rect width="10" height="6" fill="white"/>
        </clipPath>
    </defs>
</svg>
