<svg width="18" height="18" viewBox="0 0 18 18" fill="none" xmlns="http://www.w3.org/2000/svg">
    <path d="M1.40625 1.6875C0.938672 1.6875 0.5625 2.06367 0.5625 2.53125V4.21875C0.5625 4.68633 0.938672 5.0625 1.40625 5.0625H3.09375C3.56133 5.0625 3.9375 4.68633 3.9375 4.21875V2.53125C3.9375 2.06367 3.56133 1.6875 3.09375 1.6875H1.40625ZM6.75 2.25C6.12773 2.25 5.625 2.75273 5.625 3.375C5.625 3.99727 6.12773 4.5 6.75 4.5H16.875C17.4973 4.5 18 3.99727 18 3.375C18 2.75273 17.4973 2.25 16.875 2.25H6.75ZM6.75 7.875C6.12773 7.875 5.625 8.37773 5.625 9C5.625 9.62227 6.12773 10.125 6.75 10.125H16.875C17.4973 10.125 18 9.62227 18 9C18 8.37773 17.4973 7.875 16.875 7.875H6.75ZM6.75 13.5C6.12773 13.5 5.625 14.0027 5.625 14.625C5.625 15.2473 6.12773 15.75 6.75 15.75H16.875C17.4973 15.75 18 15.2473 18 14.625C18 14.0027 17.4973 13.5 16.875 13.5H6.75ZM0.5625 8.15625V9.84375C0.5625 10.3113 0.938672 10.6875 1.40625 10.6875H3.09375C3.56133 10.6875 3.9375 10.3113 3.9375 9.84375V8.15625C3.9375 7.68867 3.56133 7.3125 3.09375 7.3125H1.40625C0.938672 7.3125 0.5625 7.68867 0.5625 8.15625ZM1.40625 12.9375C0.938672 12.9375 0.5625 13.3137 0.5625 13.7812V15.4688C0.5625 15.9363 0.938672 16.3125 1.40625 16.3125H3.09375C3.56133 16.3125 3.9375 15.9363 3.9375 15.4688V13.7812C3.9375 13.3137 3.56133 12.9375 3.09375 12.9375H1.40625Z"
          fill="#009383"/>
</svg>