<svg width="16" height="16" viewBox="0 0 16 16" fill="none" xmlns="http://www.w3.org/2000/svg">
    <path d="M9.5 1.5C9.5 0.671875 8.82812 0 8 0C7.17188 0 6.5 0.671875 6.5 1.5C6.5 2.32812 7.17188 3 8 3C8.82812 3 9.5 2.32812 9.5 1.5ZM9.5 14.5C9.5 13.6719 8.82812 13 8 13C7.17188 13 6.5 13.6719 6.5 14.5C6.5 15.3281 7.17188 16 8 16C8.82812 16 9.5 15.3281 9.5 14.5ZM1.5 9.5C2.32812 9.5 3 8.82812 3 8C3 7.17188 2.32812 6.5 1.5 6.5C0.671875 6.5 0 7.17188 0 8C0 8.82812 0.671875 9.5 1.5 9.5ZM16 8C16 7.17188 15.3281 6.5 14.5 6.5C13.6719 6.5 13 7.17188 13 8C13 8.82812 13.6719 9.5 14.5 9.5C15.3281 9.5 16 8.82812 16 8ZM4.46562 13.6562C5.05 13.0719 5.05 12.1219 4.46562 11.5344C3.88125 10.9469 2.93125 10.95 2.34375 11.5344C1.75625 12.1188 1.75937 13.0688 2.34375 13.6562C2.92812 14.2437 3.87812 14.2406 4.46562 13.6562ZM4.46562 4.4625C5.05 3.87813 5.05 2.92812 4.46562 2.34063C3.88125 1.75313 2.92812 1.75625 2.34375 2.34375C1.75937 2.93125 1.75937 3.87812 2.34375 4.46562C2.92812 5.05312 3.87812 5.05 4.46562 4.46562V4.4625ZM11.5344 13.6562C12.1188 14.2406 13.0688 14.2406 13.6562 13.6562C14.2437 13.0719 14.2406 12.1219 13.6562 11.5344C13.0719 10.9469 12.1219 10.95 11.5344 11.5344C10.9469 12.1188 10.95 13.0688 11.5344 13.6562Z" fill="#00587C"/>
</svg>