<svg width="16" height="16" viewBox="0 0 16 16" fill="none" xmlns="http://www.w3.org/2000/svg">
    <path d="M9.42308 2.84615C9.42308 2.37812 9.01058 2 8.5 2C7.98942 2 7.57692 2.37812 7.57692 2.84615V6.65385H3.42308C2.9125 6.65385 2.5 7.03197 2.5 7.5C2.5 7.96803 2.9125 8.34615 3.42308 8.34615H7.57692V12.1538C7.57692 12.6219 7.98942 13 8.5 13C9.01058 13 9.42308 12.6219 9.42308 12.1538V8.34615H13.5769C14.0875 8.34615 14.5 7.96803 14.5 7.5C14.5 7.03197 14.0875 6.65385 13.5769 6.65385H9.42308V2.84615Z" fill="white"/>
</svg>
