<?xml version="1.0" encoding="UTF-8" standalone="no"?>
<svg width="40" height="40" viewBox="0 0 40 40" fill="none" xmlns="http://www.w3.org/2000/svg">
    <path d="M0 20C0 8.95471 8.95471 0 20 0C31.0453 0 40 8.95471 40 20C40 31.0453 31.0453 40 20 40C8.95471 40 0 31.0453 0 20Z" fill="#009383"/>
    <path d="M10.4941 15.3906C9.11128 15.4233 7.94386 15.908 7.03031 16.8331C6.11484 17.7582 5.63017 18.891 5.58594 20.2007V25.6243C5.58594 26.0032 5.71672 26.3263 5.97444 26.584C6.23215 26.8417 6.55334 26.9725 6.93415 26.9725C7.31495 26.9725 7.62459 26.8417 7.89385 26.584C8.16119 26.3263 8.29774 26.0051 8.29774 25.6262V20.3007C8.29774 19.7064 8.51314 19.1852 8.94011 18.7544C9.36707 18.3217 9.8902 18.1043 10.496 18.1043C11.1019 18.1043 11.6096 18.3236 12.0346 18.7544C12.4616 19.1871 12.677 19.7064 12.677 20.3007C12.677 20.895 12.4616 21.4162 12.0346 21.847C11.6077 22.2798 11.0845 22.499 10.4787 22.499C10.121 22.499 9.80365 22.6298 9.53632 22.8875C9.26899 23.1452 9.13243 23.4683 9.13243 23.8453C9.13243 24.2222 9.26514 24.5338 9.52862 24.7954C9.79211 25.0589 10.1114 25.1973 10.4806 25.2089C11.8538 25.1877 13.0155 24.705 13.9367 23.7741C14.8561 22.8433 15.3446 21.6739 15.3888 20.2988C15.3446 18.9275 14.8599 17.7601 13.9444 16.835C13.0309 15.9099 11.8692 15.4252 10.4941 15.3926" fill="white"/>
    <path d="M18.1607 15.3906C17.7819 15.3906 17.4607 15.5272 17.203 15.7945C16.9452 16.0619 16.8145 16.385 16.8145 16.7542V25.6243C16.8145 26.0032 16.9452 26.3263 17.203 26.584C17.4607 26.8417 17.7819 26.9725 18.1627 26.9725C18.5435 26.9725 18.8531 26.8417 19.1224 26.584C19.3897 26.3263 19.5263 26.0051 19.5263 25.6262V16.7561C19.5263 16.3888 19.3897 16.0657 19.1224 15.7964C18.8531 15.5272 18.5319 15.3926 18.1627 15.3926" fill="white"/>
    <path d="M27.231 18.9375C26.8522 18.9375 26.531 19.0741 26.2733 19.3414C26.0155 19.6087 25.8848 19.9318 25.8848 20.3011V25.6266C25.8848 26.0055 26.0155 26.3286 26.2733 26.5863C26.531 26.844 26.8541 26.9748 27.233 26.9748C27.6119 26.9748 27.9234 26.844 28.1927 26.5863C28.46 26.3286 28.5966 26.0074 28.5966 25.6285V20.303C28.5966 19.9357 28.46 19.6126 28.1927 19.3433C27.9234 19.0741 27.6022 18.9394 27.233 18.9394" fill="white"/>
    <path d="M30.3213 23.5241C30.3309 24.83 30.4136 25.9166 31.1983 26.5878C31.5541 26.8936 32.0541 26.9763 32.4253 26.9706C32.7965 26.9648 33.1562 26.8283 33.412 26.5648C33.6755 26.2936 33.8466 25.9666 33.8332 25.5954C33.8197 25.2242 33.6389 25.0223 33.3831 24.7742C33.3831 24.7742 33.0312 24.4357 33.0312 23.8241C33.0312 23.3875 33.0312 20.1988 33.0312 20.1988C32.9889 18.8909 32.5042 17.7601 31.5964 16.8408C31.2945 16.535 30.9598 16.2715 30.6059 16.0599C30.5905 16.0503 30.5809 16.0349 30.579 16.0176C30.579 16.0003 30.5848 15.983 30.5982 15.9714C31.7599 14.9829 32.4273 13.5443 32.4273 12.021C32.4273 9.16308 30.102 6.83594 27.2421 6.83594C24.3823 6.83594 22.057 9.16115 22.057 12.021C22.057 13.5423 22.7225 14.9829 23.8861 15.9714C23.8995 15.983 23.9072 16.0003 23.9053 16.0176C23.9053 16.0349 23.8937 16.0503 23.8784 16.0599C23.5226 16.2715 23.1898 16.533 22.8879 16.8408C21.9782 17.7601 21.4954 18.8909 21.4531 20.2007V25.6243C21.4531 26.0032 21.5839 26.3263 21.8416 26.584C22.0993 26.8417 22.4205 26.9725 22.7994 26.9725C23.1783 26.9725 23.4918 26.8417 23.7591 26.584C24.0265 26.3263 24.163 26.0051 24.163 25.6262V20.3007C24.163 19.7064 24.3784 19.1852 24.8054 18.7544C25.2323 18.3217 25.7555 18.1043 26.3613 18.1043H28.1249C28.7307 18.1043 29.2539 18.3236 29.6808 18.7544C30.1078 19.1871 30.3232 19.7064 30.3232 20.3007V23.526L30.3213 23.5241Z" fill="white"/>
</svg>
