<svg width="18" height="26" viewBox="0 0 18 26" fill="none" xmlns="http://www.w3.org/2000/svg">
    <path d="M12.75 11.875C12.75 12.9508 12.4008 13.9445 11.8125 14.7508L14.7797 17.7203C15.0727 18.0133 15.0727 18.4891 14.7797 18.782C14.4867 19.075 14.0109 19.075 13.718 18.782L10.7508 15.8125C9.94453 16.4031 8.95078 16.75 7.875 16.75C5.18203 16.75 3 14.568 3 11.875C3 9.18203 5.18203 7 7.875 7C10.568 7 12.75 9.18203 12.75 11.875ZM7.875 15.25C9.73828 15.25 11.25 13.7383 11.25 11.875C11.25 10.0117 9.73828 8.5 7.875 8.5C6.01172 8.5 4.5 10.0117 4.5 11.875C4.5 13.7383 6.01172 15.25 7.875 15.25Z"
          fill="#8A939A"/>
</svg>
